# xmcd
#
# Track frame offsets:
#	225
#	23518
#	38996
#	51044
#	70601
#	86181
#	115621
#	133674
#	148886
#	166212
#	189075
#	211623
#	226957
#	242606
#
# Disc length: 3441 seconds
#
# Revision: 0
# Processed by: cddbd v1.5.2PL0 Copyright (c) Steve Scherf et al.
# Submitted via: audiograbber 1.81.03
#
DISCID=b10d6e0e
DTITLE=Various Artist - ROCK LIFE
DYEAR=1900
DGENRE=Acid
TTITLE0=Asia - Heat Of The Moment
TTITLE1=Eric Burdon - Don't Let Me Misunderstood
TTITLE2=The Troggs - Wild Thing
TTITLE3=Steppenwoolf - Magic Carpet Ride
TTITLE4=Bonnie Tyler - It's A Heartache
TTITLE5=Uriah Heep - Sweet Freedom
TTITLE6=The Sweet Feat Brian Connoly - Love Is Like Oxygen
TTITLE7=Nazareth - This Flight Tonight
TTITLE8=Animals - When I Was Young
TTITLE9=Asia - Don't Cry
TTITLE10=Kim Carnes - To Love Somebody
TTITLE11=Rod Stweart - Bright Lights,Big City
TTITLE12=Eric Clapton - Louise
TTITLE13=Ike&Tina Turner - Come Together
EXTD=
EXTT0=
EXTT1=
EXTT2=
EXTT3=
EXTT4=
EXTT5=
EXTT6=
EXTT7=
EXTT8=
EXTT9=
EXTT10=
EXTT11=
EXTT12=
EXTT13=
PLAYORDER=
